<?xml version="1.0" encoding="utf-8"?>
<?xml-stylesheet type="text/xsl" href="rss1.xsl"?>
<rss version="2.0" xmlns:atom="http://www.w3.org/2005/Atom" xmlns:content="http://purl.org/rss/1.0/modules/content/" xmlns:dc="http://purl.org/dc/elements/1.1/" xmlns:media="http://search.yahoo.com/mrss/">
<channel>
 <title>Getty</title>
 <link>http://www.gettyimg.com/</link>
 <atom:link href="http://www.gettyimg.com/" rel="self" type="application/rss+xml" />

 
                <item>
                <title><![CDATA[【HD Live Performances】WEB-RiP - Alfie Templeman Radio 1's Big Weekend 2024 BBC.WEB-DL.1080.AAC2.0 H.264-fstambuk]]></title>
                <link><![CDATA[https://sharemania.us/threads/alfie-templeman-radio-1s-big-weekend-2024-bbc-web-dl-1080-aac2-0-h-264-fstambuk.245529/]]></link>
                <description><![CDATA[<article>
<blockquote class="messageText SelectQuoteContainer ugc baseHtml">
<div style="text-align: center"><img src="https://i.ibb.co/h83jxvz/Alfie-Templeman-Radio-1-s-Big-Weekend-2024-BBC-WEB-DL-1080-AAC2-0-H-264-fstambuk-VTM.gif" class="bbCodeImage LbImage" alt="[​IMG]" data-url="https://i.ibb.co/h83jxvz/Alfie-Templeman-Radio-1-s-Big-Weekend-2024-BBC-WEB-DL-1080-AAC2-0-H-264-fstambuk-VTM.gif" style=""><br>
​</div>
<div class="ToggleTriggerAnchor bbCodeSpoilerContainer">
<button type="button" class="button bbCodeSpoilerButton ToggleTrigger Tooltip JsOnly" data-target="> .SpoilerTarget"><span>Spoiler: <span class="SpoilerTitle">Radio 1's Big Weekend</span></span></button>
<div class="SpoilerTarget bbCodeSpoilerText">
<div class="bbCodeBlock bbCodeCode">
<div class="type">Code:</div>
<pre>General
Complete name                            : Alfie Templeman Radio 1's Big Weekend 2024 BBC.WEB-DL.1080.AAC2.0 H.264-fstambuk.mp4
Format                                   : MPEG-4
Format profile                           : Base Media
Codec ID                                 : isom (isom/iso2/avc1/mp41)
File size                                : 2.08 GiB
Duration                                 : 26 min 42 s
Overall bit rate mode                    : Variable
Overall bit rate                         : 11.1 Mb/s
Frame rate                               : 50.000 FPS
Collection                               : Radio 1's Big Weekend: 2024
Album                                    : Radio 1's Big Weekend: 2024
Album/Performer                          : BBC TV
Track name                               : Alfie Templeman
Grouping                                 : Music,Rock &amp; Indie
Performer                                : BBC Radio 1
Composer                                 : BBC iPlayer
Genre                                    : Music
ContentType                              : TV Show
Description                              : Summery sounds from the indie pop sensation.
Recorded date                            : 2024-05-29 03:12:23 UTC
Tagged date                              : 2024-05-29 03:12:23 UTC
Copyright                                : 2024 British Broadcasting Corporation, all rights reserved
Cover                                    : Yes
Lyrics                                   : Summery sounds from the indie pop sensation. /  / PLAY: https://www.bbc.co.uk/iplayer/episode/p0hv30tf /  / INFO: https://www.bbc.co.uk/programmes/p0hv30tf
Comment                                  : Summery sounds from the indie pop sensation.
Part_ID                                  : p0hv30tf
TVNetworkName                            : BBC Radio 1
LongDescription                          : Summery sounds from the indie pop sensation. /  / PLAY: https://www.bbc.co.uk/iplayer/episode/p0hv30tf /  / INFO: https://www.bbc.co.uk/programmes/p0hv30tf

Video
ID                                       : 1
Format                                   : AVC
Format/Info                              : Advanced Video Codec
Format profile                           : High@L4.2
Format settings                          : CABAC / 4 Ref Frames
Format settings, CABAC                   : Yes
Format settings, Reference frames        : 4 frames
Codec ID                                 : avc1
Codec ID/Info                            : Advanced Video Coding
Duration                                 : 26 min 42 s
Bit rate mode                            : Variable
Bit rate                                 : 11.0 Mb/s
Maximum bit rate                         : 12.0 Mb/s
Width                                    : 1 920 pixels
Height                                   : 1 080 pixels
Display aspect ratio                     : 16:9
Frame rate mode                          : Constant
Frame rate                               : 50.000 FPS
Color space                              : YUV
Chroma subsampling                       : 4:2:0
Bit depth                                : 8 bits
Scan type                                : Progressive
Bits/(Pixel*Frame)                       : 0.106
Stream size                              : 2.05 GiB (99%)
Color range                              : Limited
Color primaries                          : BT.709
Transfer characteristics                 : BT.709
Matrix coefficients                      : BT.709
Codec configuration box                  : avcC

Audio
ID                                       : 2
Format                                   : AAC LC
Format/Info                              : Advanced Audio Codec Low Complexity
Codec ID                                 : 2 / 40 / mp4a-40-2
Duration                                 : 26 min 42 s
Bit rate mode                            : Variable
Bit rate                                 : 128 kb/s
Maximum bit rate                         : 131 kb/s
Channel(s)                               : 2 channels
Channel layout                           : L R
Sampling rate                            : 48.0 kHz
Frame rate                               : 46.875 FPS (1024 SPF)
Compression mode                         : Lossy
Stream size                              : 24.5 MiB (1%)
Language                                 : English
Default                                  : Yes
Alternate group                          : 1

</pre>
</div><div style="text-align: center">​</div></div>
</div><div style="text-align: center"><br>
<div class="bbCodeBlock bbCodeVfcHH HiddenContent">
<div class="attribution type">Hidden Content:</div>
<blockquote>You must reply before you can see the hidden data contained here.</blockquote>
</div><img src="https://i.ytimg.com/vi/kFI1Db9lzq0/maxresdefault.jpg" class="bbCodeImage LbImage" alt="[​IMG]" data-url="https://i.ytimg.com/vi/kFI1Db9lzq0/maxresdefault.jpg" style="">​</div>
<div class="messageTextEndMarker">&nbsp;</div>
</blockquote>
</article>]]></description>
                <author><![CDATA[fstambuk]]></author>
                </item>

                </channel></rss>